<svg height="512" viewBox="0 0 57 60" width="512" xmlns="http://www.w3.org/2000/svg"><g id="Page-1" fill="none" fill-rule="evenodd"><g id="036---Bee-Hive" fill="rgb(0,0,0)" fill-rule="nonzero" transform="translate(-1)"><path id="Shape" d="m1 39c-.0054333 2.4149811 1.72294339 4.4856607 4.1 4.912-1.10246561 1.3660192-1.40078333 3.2130228-.78442027 4.8566576.61636307 1.6436348 2.05559108 2.8390587 3.78442027 3.1433424-.70695954.8744055-1.09493784 1.9635663-1.1 3.088.00330612 2.7600532 2.23994685 4.9966939 5 5h22c2.7600532-.0033061 4.9966939-2.2399468 5-5-.0043807-1.1254641-.392398-2.2157926-1.1-3.091 2.3714035-.433936 4.0954992-2.4982253 4.1-4.909-.0043807-1.1254641-.392398-2.2157926-1.1-3.091 1.8288876-.3328139 3.3216655-1.6537123 3.8746169-3.4284911.5529515-1.7747788.0745924-3.7098063-1.2416169-5.0225089-.1772314-.1658749-.3660415-.3189281-.565-.458.2024509-.1414803.3942948-.2975624.574-.467 1.311245-1.3144335 1.7852483-3.2476929 1.2307192-5.0195835s-2.0460813-3.0900117-3.8727192-3.4224165c.707602-.8752074 1.0956193-1.9655359 1.1-3.091-.0045008-2.4107747-1.7285965-4.475064-4.1-4.909.707602-.8752074 1.0956193-1.9655359 1.1-3.091-.0033061-2.7600532-2.2399468-4.9966939-5-5h-5.756l1.2-1.2 16.315-2.723 8.3 2.772c1.5740115.52246137 3.2735386-.32998846 3.796-1.904s-.3299885-3.27353863-1.904-3.796l-9.008-3c-.4618262-.15069218-.9537119-.18504174-1.432-.1l-17.464 2.905-14.456-2.893c-.511341-.10557822-1.0414757-.07453585-1.537.09l-9 3c-1.57401151.52218525-2.42668518 2.22148847-1.90449996 3.79549999.52218523 1.57401152 2.22148843 2.42668521 3.79549996 1.90450001l8.249-2.751 8.72 1.742-2.149 2.158h-7.765c-2.76005315.0033061-4.99669388 2.2399468-5 5 .00438071 1.1254641.39239797 2.2157926 1.1 3.091-2.3714035.433936-4.09549925 2.4982253-4.1 4.909.0052216 1.1244057.39318164 2.2135154 1.1 3.088-2.37727409.425965-4.10584048 2.4968718-4.1 4.912.00443366 1.5799521.75803299 3.0641457 2.031 4-1.27296701.9358543-2.02656634 2.4200479-2.031 4zm33 19h-22c-1.6568542 0-3-1.3431458-3-3s1.3431458-3 3-3h22c1.6568542 0 3 1.3431458 3 3s-1.3431458 3-3 3zm3-8h-28c-1.6568542-.0000001-2.99999987-1.3431458-2.99999987-3s1.34314567-2.9999999 2.99999987-3h28c1.6568542 0 3 1.3431458 3 3s-1.3431458 3-3 3zm-10-8h-8v-6c0-2.209139 1.790861-4 4-4s4 1.790861 4 4zm15.118-5.128c.8623552.8569313 1.1222824 2.1495876.6581832 3.2732422s-1.5604588 1.8561285-2.7761832 1.8547578l-11 .0000019v-6.0000019h11c.7933272.0001949 1.5545005.3135769 2.118.872zm-17.218-29.933c-.1072646-.3520083-.3991913-.61666296-.76-.689l-10.814-2.161c-.1705073-.03459985-.3471278-.02356107-.512.032l-8.5 2.83c-.52467051.17286513-1.09013487-.11232949-1.263-.637s.11232949-1.09013487.637-1.263l9-3c.1634976-.05428193.3385193-.06394783.507-.028l14.641 2.93c.1186245.02398784.240642.02602146.36.006l17.657-2.946c.1539506-.02623461.312005-.01386514.46.036l9 3c.3394023.11182412.5933655.39622286.6662242.74606595.0728586.34984309-.0464564.71198105-.3130001.95000001-.2665436.23801896-.6398218.31575818-.9792241.20393404l-8.53-2.849c-.1551302-.05187769-.3205473-.06526206-.482-.039l-16.875 2.823c-.2053006.03432477-.3947733.13185781-.542.279l-2.842 2.837h-2.826l2.058-2.064c.2615339-.26037376.3584043-.64362681.252-.997zm-12.9 5.061h22c1.6568542 0 3 1.3431458 3 3s-1.3431458 3-3 3h-22c-1.6568542 0-3-1.3431458-3-3s1.3431458-3 3-3zm-3 8h28c1.6568542 0 3 1.3431458 3 3s-1.3431458 3-3 3h-28c-1.65685425 0-3-1.3431458-3-3s1.34314575-3 3-3zm-6 11c-.00159707-.796138.31396056-1.560128.87691627-2.1230837s1.32694573-.8785134 2.12308373-.8769163h34c1.6568542 0 3 1.3431458 3 3s-1.3431458 3-3 3h-11.35c-.8440049-2.3970521-3.1087005-4.0006282-5.65-4.0006282s-4.8059951 1.6035761-5.65 4.0006282h-11.35c-.79564947 0-1.55871121-.3160705-2.12132034-.8786797-.56260914-.5626091-.87867966-1.3256708-.87867966-2.1213203zm3 5h11v6h-11c-1.65685425 0-3-1.3431458-3-3s1.34314575-3 3-3z"/><path id="Shape" d="m45 19c.5522847 0 1-.4477153 1-1v-.586l.293.293c.3923789.3789722 1.0160848.3735524 1.4018186-.0121814s.3911536-1.0094397.0121814-1.4018186l-1.707-1.707v-.586c0-.5522847-.4477153-1-1-1s-1 .4477153-1 1v.586l-1.707 1.707c-.3789722.3923789-.3735524 1.0160848.0121814 1.4018186s1.0094397.3911536 1.4018186.0121814l.293-.293v.586c0 .5522847.4477153 1 1 1z"/><path id="Shape" d="m46 60c.5522847 0 1-.4477153 1-1v-.586l.293.293c.3923789.3789722 1.0160848.3735524 1.4018186-.0121814s.3911536-1.0094397.0121814-1.4018186l-1.707-1.707v-.586c0-.5522847-.4477153-1-1-1s-1 .4477153-1 1v.586l-1.707 1.707c-.3789722.3923789-.3735524 1.0160848.0121814 1.4018186s1.0094397.3911536 1.4018186.0121814l.293-.293v.586c0 .5522847.4477153 1 1 1z"/><path id="Shape" d="m57 38h-2.586l-.707-.707c-.3923789-.3789722-1.0160848-.3735524-1.4018186.0121814s-.3911536 1.0094397-.0121814 1.4018186l.707.707v2.586c0 .5522847.4477153 1 1 1s1-.4477153 1-1v-.586l.293.293c.3923789.3789722 1.0160848.3735524 1.4018186-.0121814s.3911536-1.0094397.0121814-1.4018186l-.293-.293h.586c.5522847 0 1-.4477153 1-1s-.4477153-1-1-1z"/></g></g></svg>