<svg id="Layer_1" enable-background="new 0 0 512 512" height="512" viewBox="0 0 512 512" width="512" xmlns="http://www.w3.org/2000/svg"><g><path d="m155 152h202c19.881-.738 19.866-29.269 0-30h-202c-19.881.738-19.866 29.269 0 30z"/><path d="m357 301h-202c-19.881.738-19.866 29.269 0 30h202c19.881-.738 19.866-29.269 0-30z"/><path d="m497 2h-482c-8.284 0-15 6.716-15 15v60c0 8.284 6.716 15 15 15h15v403c0 8.284 6.716 15 15 15h102c8.284 0 15-6.716 15-15v-45h188v45c0 8.284 6.716 15 15 15h102c8.284 0 15-6.716 15-15v-403h15c8.284 0 15-6.716 15-15v-60c0-8.284-6.716-15-15-15zm-437 418v-149h392v149zm392-179h-392v-149h392zm-320 239h-72v-30h72zm320 0h-72v-30h72zm30-418h-452v-30h452z"/></g></svg>