<svg id="Capa_1" enable-background="new 0 0 512 512" height="512" viewBox="0 0 512 512" width="512" xmlns="http://www.w3.org/2000/svg"><g><path d="m493.5 256c0-22.289-15.436-41.032-36.176-46.125 3.995-7.078 6.176-15.141 6.176-23.375 0-22.285-15.43-41.025-36.165-46.123 3.994-7.073 6.165-15.13 6.165-23.377 0-26.191-21.309-47.5-47.5-47.5h-17.885c3.513-6.704 5.385-14.198 5.385-22 0-26.191-21.309-47.5-47.5-47.5h-140c-26.191 0-47.5 21.309-47.5 47.5 0 7.708 1.918 15.26 5.437 22h-17.937c-26.191 0-47.5 21.309-47.5 47.5 0 8.244 2.173 16.303 6.168 23.377-20.737 5.096-36.168 23.837-36.168 46.123 0 8.24 2.177 16.3 6.172 23.376-20.739 5.095-36.172 23.837-36.172 46.124 0 22.272 15.412 41.004 36.128 46.114-3.998 7.039-6.128 15.025-6.128 23.386 0 22.287 15.433 41.029 36.172 46.124-3.995 7.076-6.172 15.137-6.172 23.376 0 26.191 21.309 47.5 47.5 47.5h17.93c-3.517 6.732-5.43 14.276-5.43 22 0 26.191 21.309 47.5 47.5 47.5h140c26.191 0 47.5-21.309 47.5-47.5 0-7.712-1.917-15.262-5.436-22h17.936c26.191 0 47.5-21.309 47.5-47.5 0-8.242-2.175-16.302-6.168-23.376 20.737-5.096 36.168-23.837 36.168-46.124 0-8.357-2.133-16.344-6.132-23.385 20.718-5.109 36.132-23.842 36.132-46.115zm-367.5-171.5h160c4.143 0 7.5-3.358 7.5-7.5s-3.357-7.5-7.5-7.5h-123.912c-5.55-6.009-8.588-13.732-8.588-22 0-17.92 14.579-32.5 32.5-32.5h140c17.921 0 32.5 14.58 32.5 32.5 0 8.24-3.034 15.988-8.578 22h-33.922c-4.143 0-7.5 3.358-7.5 7.5s3.357 7.5 7.5 7.5h70c17.921 0 32.5 14.58 32.5 32.5 0 8.153-3.11 16.029-8.595 22h-307.816c-5.552-6.007-8.589-13.723-8.589-22 0-17.92 14.579-32.5 32.5-32.5zm-30 69.5h320c17.921 0 32.5 14.58 32.5 32.5 0 8.265-3.038 15.991-8.588 22h-122.74c-14.192-18.236-36.327-30-61.171-30s-46.979 11.764-61.171 30h-122.741c-5.551-6.008-8.589-13.728-8.589-22 0-17.92 14.579-32.5 32.5-32.5zm-62.5 102c0-17.92 14.579-32.5 32.5-32.5h119.67c-4.589 9.892-7.17 20.897-7.17 32.5 0 11.38 2.515 22.445 7.164 32.5h-119.664c-17.921 0-32.5-14.58-32.5-32.5zm325 208.5c0 17.92-14.579 32.5-32.5 32.5h-140c-17.921 0-32.5-14.58-32.5-32.5 0-8.159 3.108-16.029 8.594-22h187.817c5.551 6.008 8.589 13.727 8.589 22zm27.5-37h-260c-17.921 0-32.5-14.58-32.5-32.5 0-8.272 3.038-15.992 8.589-22h307.822c5.55 6.007 8.588 13.725 8.588 22 .001 17.92-14.578 32.5-32.499 32.5zm30-69.5h-320c-17.921 0-32.5-14.58-32.5-32.5 0-8.263 3.039-15.99 8.587-22h122.686c4.735 6.109 10.411 11.549 16.906 16.083 3.396 2.372 8.072 1.54 10.443-1.856s1.54-8.071-1.855-10.443c-16.761-11.702-26.767-30.874-26.767-51.284 0-34.462 28.037-62.5 62.5-62.5s62.5 28.038 62.5 62.5-28.037 62.5-62.5 62.5c-3.734 0-7.476-.332-11.119-.985-4.081-.729-7.976 1.981-8.706 6.059-.731 4.077 1.98 7.975 6.058 8.706 4.516.81 9.147 1.22 13.768 1.22 24.844 0 46.979-11.764 61.171-30h122.743c5.548 6.01 8.586 13.742 8.586 22-.001 17.92-14.58 32.5-32.501 32.5zm30-69.5h-119.67c4.59-9.892 7.17-20.897 7.17-32.5s-2.58-22.608-7.17-32.5h119.67c17.921 0 32.5 14.58 32.5 32.5s-14.579 32.5-32.5 32.5z"/></g></svg>