<svg height="496pt" viewBox="0 -3 496 496" width="496pt" xmlns="http://www.w3.org/2000/svg"><path d="m392 297.878906v-57.414062l-48-26.664063-48 26.664063v57.414062l48 26.664063zm-80-48 32-17.773437 32 17.773437v38.585938l-32 17.773437-32-17.773437zm0 0"/><path d="m424 307.289062v-88l-80-44.449218-40 22.222656v-3.453125c0-23.210937-14.601562-44.289063-36.335938-52.441406l-27.664062-10.359375v-34.808594h16v-33.472656c9.289062-3.3125 16-12.113282 16-22.527344v-16c0-13.230469-10.769531-24-24-24h-192c-13.230469 0-24 10.769531-24 24v16c0 10.414062 6.710938 19.214844 16 22.527344v33.472656h16v34.808594l-27.664062 10.367187c-21.734376 8.152344-36.335938 29.222657-36.335938 52.441407v230.382812c0 22.054688 17.945312 40 40 40h186.726562l45.273438 25.152344 72-40 72 40 80-44.449219v-97.40625zm-16-78.585937v78.585937l-32 17.773438-32 17.777344-32-17.777344-32-17.773438v-78.585937l64-35.550781zm-144-9.40625v88l-57.769531 32.09375c.992187-.703125 1.984375-1.414063 2.867187-2.292969 12.398438-12.402344 7.582032-36.65625-10.976562-55.210937-5.21875-5.214844-10.890625-9.214844-16.609375-12.183594 1.59375-4.375 2.488281-9.007813 2.488281-13.703125 0-10.96875-4.449219-20.910156-11.625-28.144531l10.28125-15.414063-13.3125-8.875-10.289062 15.433594c-4.65625-1.902344-9.726563-3-15.054688-3s-10.398438 1.097656-15.054688 2.992188l-10.289062-15.433594-13.3125 8.875 10.28125 15.414062c-7.175781 7.242188-11.625 17.183594-11.625 28.152344 0 4.695312.894531 9.320312 2.488281 13.695312-5.726562 2.96875-11.390625 6.96875-16.609375 12.191407-18.558594 18.554687-23.375 42.808593-10.976562 55.210937 4.640625 4.644532 10.945312 6.871094 17.984375 6.871094 2.457031 0 5.007812-.335938 7.601562-.863281 2.335938 19.871093 14.3125 37.253906 32.550781 46.375l6.960938 3.464843 6.960938-3.472656c18.238281-9.121094 30.214843-26.503906 32.550781-46.375 2.59375.535156 5.152343.863282 7.601562.863282 3.703125 0 7.183594-.65625 10.34375-1.921876l-9.457031 5.257813v52.703125h-176v-206.382812c0-.554688.105469-1.074219.128906-1.617188h271.75c.015625.542969.121094 1.0625.121094 1.617188v12.34375zm-144 36.703125c0-13.230469 10.769531-24 24-24s24 10.769531 24 24c0 2.96875-.734375 5.839844-1.792969 8.585938-8.621093-1.265626-16.488281.460937-22.207031 5.511718-5.71875-5.058594-13.585938-6.785156-22.207031-5.523437-1.058594-2.742188-1.792969-5.605469-1.792969-8.574219zm7.078125 23.984375c2.875 0 5.210937.742187 6.699219 2.230469 5.101562 5.105468 1.496094 20.121094-10.976563 32.585937-12.472656 12.464844-27.480469 16.0625-32.585937 10.976563-5.09375-5.105469-1.488282-20.121094 10.976562-32.585938 8.824219-8.824218 18.9375-13.207031 25.886719-13.207031zm7.042969 46.136719c3.984375-3.984375 7.199218-8.257813 9.878906-12.59375 2.679688 4.335937 5.894531 8.609375 9.878906 12.59375 4.441406 4.4375 9.199219 8.070312 14.050782 10.894531-.371094 16.199219-9.425782 30.703125-23.929688 38.046875-14.503906-7.351562-23.558594-21.847656-23.929688-38.046875 4.851563-2.824219 9.609376-6.464844 14.050782-10.894531zm31.070312-11.3125c-12.464844-12.464844-16.070312-27.488282-10.976562-32.585938 1.488281-1.488281 3.824218-2.230468 6.695312-2.230468 6.960938 0 17.066406 4.382812 25.890625 13.207031 12.464844 12.464843 16.070313 27.480469 10.976563 32.585937-5.113282 5.078125-20.121094 1.488282-32.585938-10.976562zm-101.191406-234.808594v-16h176v16zm-16-56c0-4.40625 3.59375-8 8-8h8v16h16v-16h16v16h16v-16h16v16h16v-16h16v16h16v-16h16v16h16v-16h16v16h16v-16h8c4.40625 0 8 3.59375 8 8v16c0 4.40625-3.59375 8-8 8h-192c-4.40625 0-8-3.59375-8-8zm-6.046875 132.160156 38.046875-14.273437v-45.886719h144v45.886719l38.046875 14.273437c9.695313 3.632813 17.410156 10.871094 21.824219 19.839844h-263.742188c4.414063-8.960938 12.128906-16.207031 21.824219-19.839844zm-1.953125 291.839844c-13.230469 0-24-10.769531-24-24v-8h176v28.703125l5.929688 3.296875zm168-12.703125v-78.585937l64-35.550782 32 17.777344 32 17.773438v78.585937l-64 35.550781zm272 0-64 35.550781-64-35.550781v-78.585937l32-17.773438 32-17.777344 64 35.550782zm0 0"/><path d="m368 368.464844v57.414062l48 26.664063 48-26.664063v-57.414062l-48-26.664063zm80 48-32 17.773437-32-17.773437v-38.585938l32-17.773437 32 17.773437zm0 0"/><path d="m224 368.464844v57.414062l48 26.664063 48-26.664063v-57.414062l-48-26.664063zm80 48-32 17.773437-32-17.773437v-38.585938l32-17.773437 32 17.773437zm0 0"/></svg>