<svg id="Capa_1" enable-background="new 0 0 512 512" height="512" viewBox="0 0 512 512" width="512" xmlns="http://www.w3.org/2000/svg"><g><path d="m471.365 230.717c-26.133-25.939-60.925-40.224-97.967-40.224h-47.932c5.124-8.985 7.866-19.144 7.866-29.642v-18.49c0-22.617-9.83-42.978-25.436-57.048v-22.562c0-17.658 14.366-32.024 32.024-32.024h26.923v-30.031h-26.923c-34.218 0-62.056 27.838-62.056 62.055v5.831c-6.784-1.967-13.943-3.042-21.353-3.042-7.781 0-15.292 1.172-22.376 3.333v-6.122c0-34.218-27.838-62.055-62.056-62.055h-26.923v30.031h26.923c17.658 0 32.024 14.366 32.024 32.024v23.514c-15.007 14.029-24.414 33.979-24.414 56.095v18.49c0 10.499 2.742 20.657 7.866 29.642h-48.955c-37.042 0-71.834 14.284-97.967 40.224-26.202 26.009-40.633 60.712-40.633 97.714v18.355h132.373c12.034 0 23.844-1.596 35.214-4.672v62.886c0 28.809 14.21 55.7 38.012 71.933l50.401 34.372 50.402-34.373c23.801-16.233 38.012-43.123 38.012-71.933v-62.886c11.37 3.077 23.18 4.672 35.214 4.672h132.372v-18.354c0-37.002-14.431-71.705-40.635-97.713zm-261.643-69.867v-18.49c0-25.8 20.99-46.788 46.789-46.788s46.789 20.989 46.789 46.788v18.49c0 16.068-12.959 29.642-28.299 29.642h-36.979c-15.34.001-28.3-13.574-28.3-29.642zm-12.104 221.713v-38.358l116.764.396v37.962zm22.699-68.312c3.529-2.993 6.939-6.18 10.217-9.556 10.416-10.728 18.956-22.793 25.466-35.776 6.509 12.983 15.05 25.049 25.466 35.776 3.368 3.468 6.876 6.735 10.508 9.799zm-189.667 2.502c2.614-24.504 13.442-47.154 31.141-64.722 20.47-20.317 47.748-31.507 76.811-31.507h99.42 1.914c-3.194 23.649-13.904 45.697-30.948 63.25-20.65 21.266-47.859 32.979-76.616 32.979zm258.831 135.367-33.481 22.833-33.481-22.833c-13.476-9.19-22.244-23.6-24.38-39.525h115.721c-2.135 15.925-10.903 30.335-24.379 39.525zm90.146-135.367c-28.757 0-55.966-11.713-76.616-32.979-17.043-17.553-27.753-39.601-30.948-63.25h2.937 98.397c29.063 0 56.341 11.189 76.811 31.507 17.699 17.568 28.527 40.218 31.141 64.722z"/></g></svg>