<svg id="Layer_1" enable-background="new 0 0 512 512" height="512" viewBox="0 0 512 512" width="512" xmlns="http://www.w3.org/2000/svg"><path d="m440 320h-40c-52.282 0-98.785 25.208-128 64.106v-73.053c66.921-7.793 120-64.673 120-135.053 0-50.786 12.703-83.512 23.179-114.94 3.449-10.348-4.262-21.06-15.179-21.06-27.306 0-53.696 5.171-78.604 15.373l-54.454-51.046c-6.154-5.77-15.73-5.77-21.885 0l-54.502 51.091c-24.25-9.928-50.772-15.418-78.555-15.418-10.907 0-18.631 10.703-15.179 21.06 11.004 33.011 23.179 64.569 23.179 114.94 0 69.578 52.522 127.109 120 135.054v49.052c-29.215-38.898-75.718-64.106-128-64.106h-40c-8.836 0-16 7.164-16 16 0 88.224 71.776 160 160 160h24v24c0 8.836 7.164 16 16 16s16-7.164 16-16h24c88.224 0 160-71.776 160-160 0-8.836-7.164-16-16-16zm-224 120c-65.16 0-119.105-48.946-127.005-112h23.005c65.16 0 119.105 48.946 127.005 112zm144-264c0 33.482-16.061 63.437-40.876 82.499.567-3.419.876-6.923.876-10.499 0-47.388-15.941-91.116-42.726-126.13 26.706-26 61.586-43.527 100.05-48.439-11.102 33.303-17.324 65.336-17.324 102.569zm-104-138.069 35.05 32.856c-12.607 7.761-24.357 16.856-35.119 27.198-10.661-10.233-22.409-19.339-35.048-27.136zm-104 138.069c0-37.332-6.201-69.192-17.316-102.545 86.375 11.16 153.316 85.181 153.316 174.545 0 17.298-13.999 32.334-32.96 31.988-56.904-.518-103.04-46.963-103.04-103.988zm144 288h-23.005c7.9-63.054 61.845-112 127.005-112h23.005c-7.9 63.054-61.845 112-127.005 112z"/></svg>