<svg id="Layer_1" enable-background="new 0 0 512 512" height="512" viewBox="0 0 512 512" width="512" xmlns="http://www.w3.org/2000/svg"><g><path d="m400.584 337.4c-53.307 0-100.587 26.277-129.584 66.557v-86.44c23.563-5.333 42.524-22.936 49.763-45.723 15.676 3.473 52.809 3.374 73.459-32.395 20.532-35.563 2.206-67.93-8.658-79.801 10.826-11.827 29.305-44.039 8.658-79.8-20.536-35.571-57.745-35.883-73.459-32.402-8.723-27.452-34.456-47.396-64.763-47.396-30.303 0-56.034 19.944-64.755 47.397-15.676-3.469-52.81-3.365-73.459 32.402-20.553 35.603-2.211 67.929 8.65 79.8-10.835 11.842-29.294 44.042-8.65 79.801 20.537 35.572 57.744 35.878 73.458 32.395 7.238 22.786 26.197 40.389 49.756 45.722v86.438c-28.998-40.277-76.282-66.555-129.6-66.555-8.284 0-15 6.731-15 15.016 0 87.995 71.589 159.584 159.6 159.584 88.004 0 159.6-71.596 159.6-159.6 0-8.284-6.732-15-15.016-15zm-273.204 30.979c58.719 7.244 105.397 53.926 112.643 112.644-58.714-7.246-105.393-53.92-112.643-112.644zm90.696-117.11c0-5.359-2.859-10.311-7.5-12.99-7.793-4.5-14.842-.091-15 0-18.115 10.455-41.355 4.23-51.81-13.878-10.356-17.938-4.44-41.235 13.878-51.811 4.641-2.679 7.5-7.631 7.5-12.99s-2.859-10.312-7.5-12.99c-17.921-10.346-24.464-33.473-13.878-51.81 10.373-17.968 33.513-24.45 51.81-13.886 4.641 2.68 10.359 2.68 15 0s7.5-7.631 7.5-12.99c0-20.911 17.013-37.924 37.924-37.924 20.916 0 37.932 17.013 37.932 37.924 0 5.359 2.859 10.311 7.5 12.99s10.359 2.68 15 0c17.96-10.371 41.243-4.416 51.81 13.886 10.379 17.98 4.401 41.252-13.886 51.81-4.641 2.679-7.5 7.631-7.5 12.99s2.859 10.312 7.5 12.99c17.979 10.38 24.442 33.523 13.886 51.811-10.455 18.107-33.695 24.332-51.81 13.878-4.641-2.68-10.359-2.68-15 0s-7.5 7.631-7.5 12.99c0 20.916-17.016 37.932-37.932 37.932-20.911-.001-37.924-17.016-37.924-37.932zm53.903 229.752c7.244-58.718 53.923-105.397 112.642-112.642-7.252 58.715-53.928 105.391-112.642 112.642z"/><path d="m319.2 159.6c0-34.849-28.352-63.199-63.2-63.199s-63.2 28.351-63.2 63.199 28.352 63.2 63.2 63.2 63.2-28.352 63.2-63.2zm-96.4 0c0-18.306 14.894-33.199 33.2-33.199s33.2 14.894 33.2 33.199c0 18.307-14.894 33.2-33.2 33.2s-33.2-14.894-33.2-33.2z"/></g></svg>