<svg id="Layer_1" enable-background="new 0 0 72 72" height="512" viewBox="0 0 72 72" width="512" xmlns="http://www.w3.org/2000/svg"><g><path d="m68.5 19.1-6.6-3.7v-7.4c0-.4-.2-.7-.5-.9l-7.1-4c-.3-.2-.7-.2-1 0l-6.6 3.7-6.6-3.7c-.3-.2-.7-.2-1 0l-6.6 3.7-6.6-3.7c-.3-.2-.7-.2-1 0l-6.6 3.7-6.6-3.7c-.3-.2-.7-.2-1 0l-7.1 4c-.4.2-.6.5-.6.9v8c0 .4.2.7.5.9l6.6 3.7v6.8l-6.6 3.7c-.3.2-.5.5-.5.9v8c0 .4.2.7.5.9l7.1 4c.3.2.7.2 1 0l6.6-3.7 6.6 3.7c.3.2.7.2 1 0l6.6-3.7 6.1 3.4v20.2c0 2.3 1.9 4.2 4.2 4.2s4.2-1.9 4.2-4.2v-8.1c1.3.8 3.1.8 4.4 0v2.9c0 2.3 1.9 4.2 4.2 4.2s4.2-1.9 4.2-4.2v-17.8l1.7-.9c.3-.2.5-.5.5-.9v-7.4l6.6-3.7c.3-.2.5-.5.5-.9v-8c0-.4-.2-.7-.5-.9zm-36.1 11.7-6.1-3.4v-6.8c2.8-1.6 2.2-1.2 6.1-3.4.6.3 5.3 3 6.1 3.4v6.8c-.7.5-5.5 3.1-6.1 3.4zm-14.2 0-6.1-3.4v-6.8l6.1-3.4 6.1 3.4v6.8zm22.4-10.2 6.1-3.4 6.1 3.4v6.8l-6.1 3.4-6.1-3.4zm13.2-15.5 6.1 3.4v6.8l-6.1 3.4c-4.1-2.3-3.3-1.9-6.1-3.4v-6.7zm-14.2 0 6.1 3.4v6.8c-2.8 1.6-2.2 1.2-6.1 3.4l-5.6-3-.5-.3v-6.8zm-14.3 0 6.1 3.4v6.8l-6.1 3.4-6.1-3.4v-6.7zm-20.3 3.5 6.1-3.4 6.1 3.4v6.8l-6.1 3.4-6.1-3.4zm12.2 30.8-6.1 3.4-6.1-3.4v-6.8l6.1-3.4 6.1 3.4zm8.1 3.4-6.1-3.4v-6.8l6.1-3.4 6.1 3.4v6.8zm8.1-10.2c.8-.5 5.5-3.1 6.1-3.4 3 1.7 2.7 1.5 6.1 3.4v6.8l-6.1 3.4-6.1-3.4zm24.3 27c0 1.2-1 2.2-2.2 2.2s-2.2-1-2.2-2.2v-6.5s0 0 0 0v-5.4c0-.6-.4-1-1-1s-1 .4-1 1v5.4s0 0 0 0c0 1.2-1 2.2-2.2 2.2s-2.2-1-2.2-2.2v-5.4c0-.6-.4-1-1-1s-1 .4-1 1v5.4 11.6c0 1.2-1 2.2-2.2 2.2s-2.2-1-2.2-2.2v-20.1l6.1-3.4 6.6 3.7c.3.2.7.2 1 0l3.5-1.9zm-3.9-16.8-6.1-3.4v-6.8c2.9-1.6 1.6-.9 6.1-3.4l6.1 3.4v6.8zm13.2-15.4-6.1 3.4-6.1-3.4v-6.8l6.1-3.4 6.1 3.4z"/><path d="m23.8 50.9c-1.7-.6-10-1.2-10.8 1.9-.3 1.3 1.1 3.1 3.2 3.7-2.5 3.5-2 6.3-.7 7.6s4.2 1.8 7.6-.7c.5 1.8 1.9 3.2 3.2 3.2 3.5 0 3-8.8 2.4-10.8.6-.4 1.1-1 1.4-1.7.5-1.3.2-2.7-.8-3.7-1.7-1.6-4.3-1.2-5.5.5zm4 .9c.4.4.6 1 .4 1.6-.1.3-.4.6-.6.8-.5-.9-1.2-1.6-2.1-2.1.3-.7 1.5-1 2.3-.3zm-4.5 8.2c-1.7-.4-3.4-2.1-3.8-3.8 1.4-.6 3.2-1.8 4.3-2.6h.1c1 .3 1.7 1 2 2-.8 1.2-2 3-2.6 4.4zm-8.4-6.7c1-1.1 5.5-.8 7-.7-1.5 1-3.2 2-3.9 2.1-1.4.2-2.8-.6-3.1-1.4zm2 9.4c-.9-.9-.6-3 1-5.2.7 1.8 2.3 3.5 4.2 4.2-2 1.4-4.2 2-5.2 1zm9.3 1.9c-.7-.3-1.5-1.6-1.3-3 .1-.7 1.1-2.4 2.1-3.9.1 1.5.3 5.9-.8 6.9z"/></g></svg>