<svg id="Layer_3" enable-background="new 0 0 64 64" height="512" viewBox="0 0 64 64" width="512" xmlns="http://www.w3.org/2000/svg"><g><path d="m42.447 48.105-7.447-3.723v-8.382c0-.379-.214-.725-.553-.895l-7.447-3.723v-8.382c0-.379-.214-.725-.553-.895l-8-4c-.281-.141-.613-.141-.895 0l-8 4c-.338.17-.552.516-.552.895v8.382l-7.447 3.724c-.339.169-.553.515-.553.894v9c0 .379.214.725.553.895l7.447 3.723v8.382c0 .379.214.725.553.895l8 4c.14.07.294.105.447.105s.307-.035.447-.105l7.553-3.777 7.553 3.776c.14.071.294.106.447.106s.307-.035.447-.105l8-4c.339-.17.553-.516.553-.895v-9c0-.379-.214-.725-.553-.895zm-9.447-3.723-7 3.5-7-3.5v-7.764l7-3.5 7 3.5zm-22-20.764 7-3.5 7 3.5v7.764l-7 3.5-7-3.5zm-8 13 7-3.5 7 3.5v7.764l-7 3.5-7-3.5zm15 24.264-7-3.5v-7.764l7-3.5 7 3.5v7.764zm23-3.5-7 3.5-7-3.5v-7.764l7-3.5 7 3.5z"/><path d="m54.447 32.105-8-4c-.281-.141-.613-.141-.895 0l-8 4c-.338.17-.552.516-.552.895v9c0 .379.214.725.553.895l8 4c.14.07.294.105.447.105s.307-.035.447-.105l8-4c.339-.17.553-.516.553-.895v-9c0-.379-.214-.725-.553-.895zm-1.447 9.277-7 3.5-7-3.5v-7.764l7-3.5 7 3.5z"/><path d="m60.838 14.966-7.496-5.248c.417-.817.658-1.739.658-2.718 0-3.309-2.691-6-6-6s-6 2.691-6 6c0 .979.241 1.901.658 2.719l-7.496 5.248c-1.353.947-2.162 2.499-2.162 4.151v.814c0 2.795 2.273 5.068 5.068 5.068 1.177 0 2.264-.415 3.126-1.115 1.699 1.967 4.166 3.115 6.806 3.115s5.107-1.148 6.806-3.115c.862.7 1.949 1.115 3.126 1.115 2.795 0 5.068-2.273 5.068-5.068v-.814c0-1.652-.809-3.204-2.162-4.152zm-16.716 2.29c1.234.481 2.554.744 3.878.744s2.644-.263 3.878-.744l.551 1.79c-2.788 1.218-6.07 1.217-8.858 0zm7.165-1.921c-2.083.846-4.492.846-6.575 0l.875-2.845c.74.326 1.555.51 2.413.51s1.673-.184 2.412-.51zm-3.287-12.335c2.206 0 4 1.794 4 4s-1.794 4-4 4-4-1.794-4-4 1.794-4 4-4zm-9.932 20c-1.692 0-3.068-1.376-3.068-3.068v-.814c0-1 .489-1.94 1.309-2.513l7.543-5.28c.001.001.001.001.002.002l-2.947 9.577c-.386 1.254-1.527 2.096-2.839 2.096zm9.932 2c-2.174 0-4.188-1.007-5.511-2.705.13-.255.243-.522.33-.804l.161-.522c1.587.665 3.297 1.031 5.02 1.031 1.722 0 3.433-.367 5.021-1.031l.161.523c.087.282.2.548.33.804-1.324 1.698-3.339 2.704-5.512 2.704zm13-5.068c0 1.692-1.376 3.068-3.068 3.068-1.312 0-2.452-.842-2.838-2.096l-2.947-9.578c.001 0 .001-.001.002-.002l7.543 5.28c.819.574 1.308 1.514 1.308 2.514z"/></g></svg>