<svg id="Layer_1" enable-background="new 0 0 512 512" height="512" viewBox="0 0 512 512" width="512" xmlns="http://www.w3.org/2000/svg"><path d="m495.877 118.41-102.259-102.242c-21.61-21.625-56.541-21.489-78.017-.001-7.058 7.062-11.782 15.582-14.205 24.598-20.962-11.4-47.685-8.168-65.326 9.486-17.637 17.648-20.789 44.376-9.479 65.284-9.001 2.429-17.505 7.159-24.555 14.214-21.668 21.571-21.631 56.508-.019 78.046l17.744 17.754-205.986 205.987c-18.366 18.376-18.366 48.275-.001 66.65 18.399 18.411 48.275 18.426 66.685.004l205.951-205.952.863.863v163.732c0 30.799 24.886 55.167 55.167 55.167 30.419 0 55.167-24.748 55.167-55.167v-60.779c0-13.877 11.289-25.167 25.166-25.167 30.419 0 55.167-24.747 55.167-55.166v-78.775c0-9.333-2.312-18.306-6.649-26.273 9.218-2.477 17.668-7.32 24.592-14.249 21.49-21.506 21.49-56.502-.006-78.014zm-436.635 358.571c-6.676 6.68-17.565 6.686-24.248-.001-6.678-6.682-6.678-17.555-.003-24.234l205.977-205.978 24.235 24.25zm163.988-290.402c-.01-.009-.019-.018-.027-.026-9.727-9.685-10.004-25.584.027-35.57 9.822-9.828 25.766-9.816 35.576 0l102.211 102.274c9.727 9.685 10.004 25.584-.027 35.57-9.802 9.808-25.746 9.837-35.575 0zm224.709 129.142c0 13.877-11.29 25.166-25.167 25.166-30.419 0-55.166 24.748-55.166 55.167v60.779c0 13.877-11.29 25.167-25.167 25.167-13.675 0-25.167-10.932-25.167-25.167v-137.102c20.876 11.131 47.377 7.875 64.911-9.671 7.109-7.078 11.862-15.59 14.302-24.588 15.996 8.664 35.35 8.827 51.454.553zm-7.418-60.976c-9.819 9.825-25.768 9.817-35.579-.002l-147.653-147.692.002.003c-9.808-9.815-9.808-25.784 0-35.599 9.804-9.81 25.747-9.835 35.577.003l147.679 147.715c9.727 9.686 10.004 25.585-.026 35.572zm34.141-79.527c-9.785 9.791-25.727 9.855-35.58-.004l-102.26-102.243v.001c-9.809-9.815-9.809-25.785 0-35.6 9.821-9.827 25.764-9.817 35.58.005l102.259 102.243c9.807 9.815 9.807 25.785.001 35.598z"/></svg>