<svg id="Capa_1" enable-background="new 0 0 512 512" height="512" viewBox="0 0 512 512" width="512" xmlns="http://www.w3.org/2000/svg"><path d="m285.186 144.529c-4.011 1.032-6.427 5.121-5.394 9.132.513 1.994.773 4.061.773 6.145 0 13.545-11.02 24.564-24.564 24.564s-24.564-11.02-24.564-24.564 11.02-24.564 24.564-24.564c2.09 0 4.164.262 6.164.777 4.012 1.035 8.102-1.377 9.136-5.388 1.035-4.011-1.377-8.101-5.388-9.136-3.224-.832-6.558-1.253-9.912-1.253-21.816 0-39.564 17.748-39.564 39.564 0 21.815 17.749 39.564 39.564 39.564s39.564-17.749 39.564-39.564c0-3.344-.419-6.669-1.247-9.883-1.032-4.011-5.118-6.425-9.132-5.394z"/><path d="m412.456 153.559c-12.581-8.355-27.757-13.896-43.868-16.147 14.023-8.245 25.924-19.172 34.349-31.706 1.401-2.085 1.666-4.733.705-7.054s-3.021-4.007-5.487-4.49c-14.82-2.905-30.962-2.216-46.708 1.87 9.801-12.984 16.614-27.633 19.601-42.438.497-2.462-.272-5.01-2.048-6.787-1.776-1.776-4.321-2.546-6.787-2.049-14.804 2.988-29.453 9.801-42.437 19.601 4.086-15.746 4.774-31.887 1.869-46.708-.483-2.466-2.168-4.525-4.49-5.487-2.32-.961-4.969-.697-7.054.705-12.534 8.426-23.461 20.326-31.706 34.35-2.251-16.111-7.792-31.288-16.148-43.868-1.389-2.093-3.735-3.351-6.247-3.351s-4.858 1.258-6.248 3.351c-8.355 12.581-13.896 27.757-16.148 43.868-8.245-14.023-19.172-25.924-31.706-34.35-2.085-1.401-4.734-1.665-7.054-.705-2.321.961-4.007 3.021-4.49 5.487-2.905 14.82-2.216 30.962 1.869 46.708-12.984-9.801-27.633-16.614-42.437-19.602-2.461-.497-5.01.272-6.787 2.049-1.776 1.776-2.545 4.324-2.048 6.787 2.988 14.804 9.801 29.454 19.601 42.438-15.746-4.085-31.887-4.774-46.708-1.87-2.465.483-4.525 2.169-5.487 4.49-.961 2.321-.697 4.969.705 7.054 8.426 12.534 20.326 23.461 34.349 31.706-16.111 2.251-31.287 7.792-43.868 16.147-2.093 1.39-3.351 3.735-3.351 6.248 0 2.512 1.258 4.857 3.351 6.248 12.581 8.355 27.757 13.896 43.868 16.147-14.023 8.245-25.924 19.172-34.349 31.706-1.402 2.085-1.667 4.733-.705 7.055.961 2.321 3.021 4.006 5.486 4.489 6.059 1.188 12.338 1.775 18.721 1.775 9.233 0 18.682-1.234 27.993-3.651-9.803 12.986-16.618 27.638-19.606 42.444-.497 2.463.272 5.011 2.048 6.787 1.42 1.421 3.334 2.197 5.303 2.197.493 0 .99-.048 1.484-.148 14.804-2.988 29.453-9.801 42.437-19.602-4.086 15.746-4.774 31.887-1.869 46.708.483 2.465 2.168 4.525 4.49 5.486.923.383 1.898.571 2.87.571 1.469 0 2.929-.432 4.185-1.276 12.534-8.426 23.461-20.326 31.706-34.349 2.135 15.282 7.245 29.711 14.895 41.895v101.789c-7.652-9.808-17.877-17.645-29.868-22.297-1.998-.775-4.231-.659-6.137.319-15.883 8.151-34.49 8.897-51.049 2.047-14.477-5.989-25.958-17.189-32.281-31.263 14.417-5.493 30.456-5.309 44.932.68 7.76 3.21 14.632 7.857 20.424 13.813 2.888 2.969 7.637 3.036 10.605.148 2.969-2.888 3.036-7.637.147-10.606-7.224-7.428-15.784-13.22-25.443-17.216-20.635-8.535-43.827-7.602-63.632 2.563-3.27 1.678-4.842 5.478-3.713 8.976 6.836 21.185 22.591 38.23 43.226 46.767 19.527 8.078 41.348 7.675 60.42-1.008 19.484 8.904 32.368 28.733 32.368 50.314v39.597 5.106.483c0 4.142 3.358 7.5 7.5 7.5s7.5-3.358 7.5-7.5v-.483-5.106c0-21.391 12.662-41.056 31.862-50.071 10.081 4.68 20.943 7.042 31.843 7.041 9.85 0 19.73-1.924 29.083-5.793 20.635-8.536 36.39-25.582 43.226-46.768 1.128-3.497-.443-7.297-3.713-8.976-19.805-10.164-42.998-11.098-63.631-2.562-19.354 8.006-34.415 23.5-41.851 42.873-10.677 4.743-19.824 12.054-26.818 21.019v-141.385c7.65-12.183 12.76-26.612 14.895-41.895 8.245 14.023 19.172 25.923 31.706 34.349 1.255.844 2.715 1.276 4.185 1.276.971 0 1.946-.188 2.87-.571 2.321-.961 4.007-3.021 4.49-5.486 2.905-14.821 2.216-30.962-1.869-46.708 12.984 9.8 27.633 16.613 42.437 19.602.494.1.99.148 1.484.148 1.969 0 3.883-.776 5.303-2.197 1.776-1.776 2.545-4.324 2.048-6.787-2.988-14.807-9.803-29.458-19.606-42.444 9.311 2.417 18.759 3.651 27.993 3.651 6.382 0 12.663-.587 18.721-1.775 2.465-.483 4.525-2.168 5.486-4.489s.697-4.97-.705-7.055c-8.426-12.534-20.326-23.46-34.349-31.706 16.111-2.251 31.287-7.792 43.868-16.147 2.093-1.39 3.351-3.736 3.351-6.248-.001-2.513-1.259-4.859-3.352-6.248zm-74.554 252.086c.001 0 .001 0 0 0 14.477-5.988 30.516-6.172 44.932-.679-6.322 14.073-17.804 25.273-32.281 31.262-14.475 5.989-30.515 6.172-44.932.679 6.324-14.073 17.806-25.274 32.281-31.262zm-81.902-189.209c-31.225 0-56.629-25.404-56.629-56.629 0-31.226 25.404-56.629 56.629-56.629s56.629 25.403 56.629 56.629c0 31.225-25.404 56.629-56.629 56.629zm126.442-109.003c-9.133 9.79-20.964 17.919-34.306 23.445-7.866 3.258-15.937 5.491-24.057 6.695-1.152-3.52-2.572-6.917-4.233-10.174 6.597-4.895 13.888-9.026 21.76-12.287 13.343-5.527 27.457-8.143 40.836-7.679zm-52.39-9.613c-6.03 6.03-12.644 11.189-19.698 15.414-2.392-2.788-4.993-5.389-7.781-7.782 4.224-7.055 9.383-13.668 15.413-19.698 10.211-10.21 22.249-18.03 34.789-22.722-4.692 12.54-12.512 24.577-22.723 34.788zm-21.678-64.455c.464 13.381-2.154 27.495-7.68 40.835-3.26 7.871-7.391 15.162-12.286 21.76-3.258-1.66-6.655-3.08-10.175-4.232 1.205-8.121 3.438-16.191 6.696-24.058 5.526-13.341 13.655-25.172 23.445-34.305zm-52.374-10.418c5.55 12.185 8.532 26.226 8.532 40.666 0 8.518-1.026 16.832-3.022 24.797-1.821-.139-3.654-.232-5.51-.232s-3.689.093-5.51.232c-1.996-7.966-3.022-16.28-3.022-24.797 0-14.44 2.982-28.482 8.532-40.666zm-52.374 10.418c9.79 9.133 17.919 20.964 23.445 34.305 3.258 7.866 5.492 15.937 6.696 24.058-3.52 1.152-6.917 2.572-10.175 4.232-4.895-6.597-9.026-13.888-12.287-21.76-5.525-13.341-8.143-27.454-7.679-40.835zm-9.612 52.389c6.03 6.03 11.189 12.644 15.413 19.698-2.788 2.393-5.389 4.994-7.782 7.782-7.054-4.224-13.668-9.383-19.698-15.414-10.211-10.211-18.031-22.248-22.722-34.788 12.541 4.692 24.579 12.511 34.789 22.722zm-64.456 21.679c13.377-.465 27.495 2.153 40.836 7.679 7.872 3.261 15.163 7.392 21.76 12.287-1.66 3.258-3.08 6.655-4.233 10.175-8.12-1.204-16.191-3.438-24.057-6.696-13.342-5.526-25.173-13.655-34.306-23.445zm30.249 43.841c8.518 0 16.832 1.026 24.797 3.022-.139 1.821-.233 3.654-.233 5.51 0 1.855.094 3.689.233 5.51-7.965 1.996-16.279 3.022-24.797 3.022-14.44 0-28.481-2.982-40.666-8.532 12.184-5.549 26.226-8.532 40.666-8.532zm-30.249 60.907c9.133-9.791 20.964-17.919 34.306-23.445 7.866-3.258 15.937-5.491 24.057-6.696 1.152 3.52 2.572 6.917 4.233 10.175-6.597 4.895-13.888 9.026-21.76 12.287-13.343 5.525-27.463 8.141-40.836 7.679zm52.39 9.611c6.03-6.03 12.644-11.189 19.698-15.413 2.392 2.788 4.993 5.389 7.781 7.781-4.224 7.055-9.383 13.668-15.413 19.699-10.21 10.21-22.248 18.03-34.789 22.722 4.692-12.54 12.512-24.578 22.723-34.789zm21.678 64.456c-.464-13.381 2.154-27.495 7.68-40.835 3.26-7.871 7.391-15.162 12.286-21.76 3.258 1.66 6.655 3.081 10.175 4.233-1.205 8.121-3.438 16.191-6.696 24.057-5.526 13.341-13.655 25.172-23.445 34.305zm52.374 10.418c-5.55-12.185-8.532-26.226-8.532-40.666 0-8.518 1.026-16.832 3.022-24.797 1.821.139 3.654.233 5.51.233s3.689-.094 5.51-.233c1.996 7.966 3.022 16.28 3.022 24.797 0 14.44-2.982 28.481-8.532 40.666zm52.374-10.418c-9.79-9.133-17.919-20.964-23.445-34.306-3.258-7.866-5.492-15.937-6.696-24.057 3.52-1.152 6.917-2.573 10.175-4.233 4.894 6.597 9.026 13.887 12.287 21.76 5.525 13.341 8.143 27.455 7.679 40.836zm9.612-52.389c-6.03-6.031-11.189-12.644-15.413-19.698 2.788-2.393 5.389-4.994 7.782-7.782 7.054 4.224 13.667 9.383 19.698 15.413 10.211 10.211 18.031 22.249 22.722 34.789-12.541-4.692-24.579-12.512-34.789-22.722zm64.456-21.678c-13.377.463-27.495-2.153-40.836-7.68-7.873-3.261-15.163-7.393-21.76-12.287 1.66-3.258 3.08-6.655 4.233-10.175 8.12 1.204 16.191 3.437 24.057 6.696 13.342 5.526 25.173 13.655 34.306 23.446zm-30.249-43.842c-8.518 0-16.832-1.026-24.797-3.022.139-1.821.233-3.654.233-5.51s-.094-3.689-.233-5.51c7.966-1.996 16.28-3.022 24.797-3.022 14.44 0 28.481 2.982 40.666 8.532-12.184 5.549-26.226 8.532-40.666 8.532z"/></svg>